<svg aria-hidden="true" width="32" height="32" fill="none" xmlns="http://www.w3.org/2000/svg"><path d="M16 6.893a9.108 9.108 0 100 18.215 9.108 9.108 0 000-18.215zm4.177 13.135a.567.567 0 01-.781.188c-2.138-1.306-4.83-1.602-8-.877a.568.568 0 01-.253-1.107c3.47-.793 6.445-.452 8.846 1.015a.568.568 0 01.188.781zm1.115-2.48a.71.71 0 01-.977.234c-2.448-1.504-6.18-1.94-9.076-1.061a.711.711 0 01-.412-1.359c3.307-1.004 7.42-.517 10.23 1.21a.71.71 0 01.235.976zm.095-2.582c-2.935-1.743-7.778-1.904-10.58-1.053a.852.852 0 11-.495-1.63c3.217-.977 8.565-.788 11.945 1.218a.85.85 0 01.298 1.167.852.852 0 01-1.168.298z" fill="#000"></path></svg>