<svg aria-hidden="true" width="32" height="32" fill="none" xmlns="http://www.w3.org/2000/svg"><path d="M16.354 8.014C17.233 8 18.106 8.008 18.979 8c.053 1.02.422 2.06 1.175 2.782.75.74 1.813 1.078 2.846 1.192v2.685c-.968-.032-1.941-.232-2.82-.646a8.177 8.177 0 01-1.088-.62c-.005 1.948.008 3.894-.013 5.834a5.052 5.052 0 01-.908 2.628c-.878 1.278-2.402 2.112-3.968 2.138-.96.054-1.92-.206-2.738-.685-1.356-.794-2.31-2.247-2.45-3.807-.017-.33-.02-.662-.008-.992a4.986 4.986 0 011.734-3.308c1.112-.962 2.67-1.42 4.128-1.149.014.988-.026 1.974-.026 2.962-.666-.214-1.445-.154-2.027.248a2.312 2.312 0 00-.916 1.166c-.139.338-.1.714-.091 1.073.16 1.094 1.22 2.013 2.35 1.914.75-.008 1.469-.44 1.86-1.073.126-.221.267-.448.275-.708.066-1.193.04-2.38.048-3.573.005-2.688-.008-5.368.012-8.047z" fill="currentcolor"></path></svg>