<svg xmlns="http://www.w3.org/2000/svg" xmlns:xlink="http://www.w3.org/1999/xlink" viewBox="0 0 993 129" width="993" height="129" preserveAspectRatio="xMidYMid slice" style="width: 100%; height: 100%; transform: translate3d(0px, 0px, 0px); content-visibility: visible;"><defs><clipPath id="__lottie_element_2"><rect width="993" height="129" x="0" y="0"></rect></clipPath><clipPath id="__lottie_element_4"><path d="M0,0 L993,0 L993,129 L0,129z"></path></clipPath><clipPath id="__lottie_element_8"><path d="M0,0 L993,0 L993,129 L0,129z"></path></clipPath><clipPath id="__lottie_element_28"><path d="M0,0 L993,0 L993,129 L0,129z"></path></clipPath><clipPath id="__lottie_element_32"><path d="M0,0 L993,0 L993,129 L0,129z"></path></clipPath><clipPath id="__lottie_element_49"><path d="M0,0 L993,0 L993,129 L0,129z"></path></clipPath><clipPath id="__lottie_element_63"><path d="M0,0 L993,0 L993,129 L0,129z"></path></clipPath><clipPath id="__lottie_element_77"><path d="M0,0 L993,0 L993,129 L0,129z"></path></clipPath><clipPath id="__lottie_element_91"><path d="M0,0 L993,0 L993,129 L0,129z"></path></clipPath><clipPath id="__lottie_element_105"><path d="M0,0 L993,0 L993,129 L0,129z"></path></clipPath><clipPath id="__lottie_element_123"><path d="M0,0 L993,0 L993,129 L0,129z"></path></clipPath><clipPath id="__lottie_element_137"><path d="M0,0 L993,0 L993,129 L0,129z"></path></clipPath><clipPath id="__lottie_element_149"><path d="M0,0 L993,0 L993,129 L0,129z"></path></clipPath><clipPath id="__lottie_element_153"><path d="M0,0 L993,0 L993,129 L0,129z"></path></clipPath><clipPath id="__lottie_element_169"><path d="M0,0 L993,0 L993,129 L0,129z"></path></clipPath><clipPath id="__lottie_element_182"><path d="M0,0 L993,0 L993,129 L0,129z"></path></clipPath><clipPath id="__lottie_element_195"><path d="M0,0 L993,0 L993,129 L0,129z"></path></clipPath><clipPath id="__lottie_element_208"><path d="M0,0 L993,0 L993,129 L0,129z"></path></clipPath></defs><g clip-path="url(#__lottie_element_2)"><g clip-path="url(#__lottie_element_4)" transform="matrix(1,0,0,1,0,0)" opacity="1" style="display: block;"><g transform="matrix(1,0,0,1,0,0)" opacity="1" style="display: block;"><rect width="993" height="129" fill="#ffffff"></rect></g><g clip-path="url(#__lottie_element_208)" transform="matrix(1,0,0,1,0,0)" opacity="1" style="display: block;"><g transform="matrix(0,1.0148975849151611,-1.000005841255188,0,64.4996566772461,503.8981628417969)" opacity="1" style="display: block;"><g opacity="1" transform="matrix(1.0342999696731567,0,0,0.931119978427887,-433.2770080566406,1.7330000400543213)"><path fill="rgb(0,0,0)" fill-opacity="1" d=" M58.72249984741211,-10.233499526977539 C58.72249984741211,-10.233499526977539 58.72249984741211,10.233499526977539 58.72249984741211,10.233499526977539 C58.72249984741211,10.233499526977539 -58.72249984741211,10.233499526977539 -58.72249984741211,10.233499526977539 C-58.72249984741211,10.233499526977539 -58.72249984741211,-10.233499526977539 -58.72249984741211,-10.233499526977539 C-58.72249984741211,-10.233499526977539 58.72249984741211,-10.233499526977539 58.72249984741211,-10.233499526977539z"></path><path stroke-linecap="butt" stroke-linejoin="miter" fill-opacity="0" stroke-miterlimit="4" stroke="rgb(255,255,255)" stroke-opacity="1" stroke-width="0" d=" M58.72249984741211,-10.233499526977539 C58.72249984741211,-10.233499526977539 58.72249984741211,10.233499526977539 58.72249984741211,10.233499526977539 C58.72249984741211,10.233499526977539 -58.72249984741211,10.233499526977539 -58.72249984741211,10.233499526977539 C-58.72249984741211,10.233499526977539 -58.72249984741211,-10.233499526977539 -58.72249984741211,-10.233499526977539 C-58.72249984741211,-10.233499526977539 58.72249984741211,-10.233499526977539 58.72249984741211,-10.233499526977539z"></path></g></g><g transform="matrix(0,1.0148975849151611,-1.000005841255188,0,117.8702621459961,503.6014099121094)" opacity="1" style="display: block;"><g opacity="1" transform="matrix(1.0342999696731567,0,0,0.931119978427887,-433.26300048828125,0.9610000252723694)"><path fill="rgb(0,0,0)" fill-opacity="1" d=" M58.72249984741211,-10.233499526977539 C58.72249984741211,-10.233499526977539 58.72249984741211,10.233499526977539 58.72249984741211,10.233499526977539 C58.72249984741211,10.233499526977539 -58.72249984741211,10.233499526977539 -58.72249984741211,10.233499526977539 C-58.72249984741211,10.233499526977539 -58.72249984741211,-10.233499526977539 -58.72249984741211,-10.233499526977539 C-58.72249984741211,-10.233499526977539 58.72249984741211,-10.233499526977539 58.72249984741211,-10.233499526977539z"></path><path stroke-linecap="butt" stroke-linejoin="miter" fill-opacity="0" stroke-miterlimit="4" stroke="rgb(255,255,255)" stroke-opacity="1" stroke-width="0" d=" M58.72249984741211,-10.233499526977539 C58.72249984741211,-10.233499526977539 58.72249984741211,10.233499526977539 58.72249984741211,10.233499526977539 C58.72249984741211,10.233499526977539 -58.72249984741211,10.233499526977539 -58.72249984741211,10.233499526977539 C-58.72249984741211,10.233499526977539 -58.72249984741211,-10.233499526977539 -58.72249984741211,-10.233499526977539 C-58.72249984741211,-10.233499526977539 58.72249984741211,-10.233499526977539 58.72249984741211,-10.233499526977539z"></path></g></g><g transform="matrix(0,1.0148975849151611,-1.000005841255188,0,89.64216613769531,501.9184265136719)" opacity="1" style="display: block;"><g opacity="1" transform="matrix(0.14452999830245972,-0.00004036038808408193,0.001709149219095707,6.120439529418945,-484.54400634765625,25.569000244140625)"><path fill="rgb(0,0,0)" fill-opacity="1" d=" M58.72249984741211,-10.133500099182129 C58.72249984741211,-10.133500099182129 58.72249984741211,10.133500099182129 58.72249984741211,10.133500099182129 C58.72249984741211,10.133500099182129 -58.72249984741211,10.133500099182129 -58.72249984741211,10.133500099182129 C-58.72249984741211,10.133500099182129 -58.72249984741211,-10.133500099182129 -58.72249984741211,-10.133500099182129 C-58.72249984741211,-10.133500099182129 58.72249984741211,-10.133500099182129 58.72249984741211,-10.133500099182129z"></path><path stroke-linecap="butt" stroke-linejoin="miter" fill-opacity="0" stroke-miterlimit="4" stroke="rgb(255,255,255)" stroke-opacity="1" stroke-width="0" d=" M58.72249984741211,-10.133500099182129 C58.72249984741211,-10.133500099182129 58.72249984741211,10.133500099182129 58.72249984741211,10.133500099182129 C58.72249984741211,10.133500099182129 -58.72249984741211,10.133500099182129 -58.72249984741211,10.133500099182129 C-58.72249984741211,10.133500099182129 -58.72249984741211,-10.133500099182129 -58.72249984741211,-10.133500099182129 C-58.72249984741211,-10.133500099182129 58.72249984741211,-10.133500099182129 58.72249984741211,-10.133500099182129z"></path></g></g><g transform="matrix(0,1.0148975849151611,-1.000005841255188,0,12.698907852172852,503.5263366699219)" opacity="1" style="display: block;"><g opacity="1" transform="matrix(1.0342999696731567,0,0,0.931119978427887,-433.2770080566406,1.7330000400543213)"><path fill="rgb(0,0,0)" fill-opacity="1" d=" M58.72249984741211,-10.233499526977539 C58.72249984741211,-10.233499526977539 58.72249984741211,10.233499526977539 58.72249984741211,10.233499526977539 C58.72249984741211,10.233499526977539 -58.72249984741211,10.233499526977539 -58.72249984741211,10.233499526977539 C-58.72249984741211,10.233499526977539 -58.72249984741211,-10.233499526977539 -58.72249984741211,-10.233499526977539 C-58.72249984741211,-10.233499526977539 58.72249984741211,-10.233499526977539 58.72249984741211,-10.233499526977539z"></path><path stroke-linecap="butt" stroke-linejoin="miter" fill-opacity="0" stroke-miterlimit="4" stroke="rgb(255,255,255)" stroke-opacity="1" stroke-width="0" d=" M58.72249984741211,-10.233499526977539 C58.72249984741211,-10.233499526977539 58.72249984741211,10.233499526977539 58.72249984741211,10.233499526977539 C58.72249984741211,10.233499526977539 -58.72249984741211,10.233499526977539 -58.72249984741211,10.233499526977539 C-58.72249984741211,10.233499526977539 -58.72249984741211,-10.233499526977539 -58.72249984741211,-10.233499526977539 C-58.72249984741211,-10.233499526977539 58.72249984741211,-10.233499526977539 58.72249984741211,-10.233499526977539z"></path></g></g></g><g clip-path="url(#__lottie_element_149)" transform="matrix(0,1,-1,0,272.4859924316406,-143.48501586914062)" opacity="1" style="display: block;"><g clip-path="url(#__lottie_element_195)" transform="matrix(1,0,0,1,0,0)" opacity="1" style="display: none;"><g transform="matrix(0.9969900250434875,0,0,1,496.2088317871094,64.5)" opacity="0.22369677419354161" style="display: none;"><g opacity="1" transform="matrix(1.0827900171279907,0,0,1,-341.25,0)"><path fill="rgb(0,0,0)" fill-opacity="1" d=" M9.25,-62.5 C9.25,-62.5 9.25,62.5 9.25,62.5 C9.25,62.5 -9.25,62.5 -9.25,62.5 C-9.25,62.5 -9.25,-62.5 -9.25,-62.5 C-9.25,-62.5 9.25,-62.5 9.25,-62.5z"></path><path stroke-linecap="butt" stroke-linejoin="miter" fill-opacity="0" stroke-miterlimit="4" stroke="rgb(255,255,255)" stroke-opacity="1" stroke-width="0" d=" M9.25,-62.5 C9.25,-62.5 9.25,62.5 9.25,62.5 C9.25,62.5 -9.25,62.5 -9.25,62.5 C-9.25,62.5 -9.25,-62.5 -9.25,-62.5 C-9.25,-62.5 9.25,-62.5 9.25,-62.5z"></path></g></g><g transform="matrix(0.9969900250434875,0,0,1,548.2085571289062,64.5)" opacity="0.22369677419354161" style="display: none;"><g opacity="1" transform="matrix(1.0827900171279907,0,0,1,-341.25,0)"><path fill="rgb(0,0,0)" fill-opacity="1" d=" M9.25,-62.5 C9.25,-62.5 9.25,62.5 9.25,62.5 C9.25,62.5 -9.25,62.5 -9.25,62.5 C-9.25,62.5 -9.25,-62.5 -9.25,-62.5 C-9.25,-62.5 9.25,-62.5 9.25,-62.5z"></path><path stroke-linecap="butt" stroke-linejoin="miter" fill-opacity="0" stroke-miterlimit="4" stroke="rgb(255,255,255)" stroke-opacity="1" stroke-width="0" d=" M9.25,-62.5 C9.25,-62.5 9.25,62.5 9.25,62.5 C9.25,62.5 -9.25,62.5 -9.25,62.5 C-9.25,62.5 -9.25,-62.5 -9.25,-62.5 C-9.25,-62.5 9.25,-62.5 9.25,-62.5z"></path></g></g><g transform="matrix(0.9969900250434875,0,0,1,601.23681640625,64.5)" opacity="0.22369677419354161" style="display: none;"><g opacity="1" transform="matrix(1.0827900171279907,0,0,1,-341.25,0)"><path fill="rgb(0,0,0)" fill-opacity="1" d=" M9.25,-62.5 C9.25,-62.5 9.25,62.5 9.25,62.5 C9.25,62.5 -9.25,62.5 -9.25,62.5 C-9.25,62.5 -9.25,-62.5 -9.25,-62.5 C-9.25,-62.5 9.25,-62.5 9.25,-62.5z"></path><path stroke-linecap="butt" stroke-linejoin="miter" fill-opacity="0" stroke-miterlimit="4" stroke="rgb(255,255,255)" stroke-opacity="1" stroke-width="0" d=" M9.25,-62.5 C9.25,-62.5 9.25,62.5 9.25,62.5 C9.25,62.5 -9.25,62.5 -9.25,62.5 C-9.25,62.5 -9.25,-62.5 -9.25,-62.5 C-9.25,-62.5 9.25,-62.5 9.25,-62.5z"></path></g></g></g><g clip-path="url(#__lottie_element_182)" style="display: none;" transform="matrix(1,0,0,1,0,0)" opacity="1"><g style="display: none;" transform="matrix(0.9969900250434875,0,0,1,496.2088317871094,64.5)" opacity="0.2243419354838636"><g opacity="1" transform="matrix(1.0827900171279907,0,0,1,-341.25,0)"><path fill="rgb(0,0,0)" fill-opacity="1" d=" M9.25,-62.5 C9.25,-62.5 9.25,62.5 9.25,62.5 C9.25,62.5 -9.25,62.5 -9.25,62.5 C-9.25,62.5 -9.25,-62.5 -9.25,-62.5 C-9.25,-62.5 9.25,-62.5 9.25,-62.5z"></path><path stroke-linecap="butt" stroke-linejoin="miter" fill-opacity="0" stroke-miterlimit="4" stroke="rgb(255,255,255)" stroke-opacity="1" stroke-width="0" d=" M9.25,-62.5 C9.25,-62.5 9.25,62.5 9.25,62.5 C9.25,62.5 -9.25,62.5 -9.25,62.5 C-9.25,62.5 -9.25,-62.5 -9.25,-62.5 C-9.25,-62.5 9.25,-62.5 9.25,-62.5z"></path></g></g><g style="display: none;" transform="matrix(0.9969900250434875,0,0,1,548.2085571289062,64.5)" opacity="0.2243419354838636"><g opacity="1" transform="matrix(1.0827900171279907,0,0,1,-341.25,0)"><path fill="rgb(0,0,0)" fill-opacity="1" d=" M9.25,-62.5 C9.25,-62.5 9.25,62.5 9.25,62.5 C9.25,62.5 -9.25,62.5 -9.25,62.5 C-9.25,62.5 -9.25,-62.5 -9.25,-62.5 C-9.25,-62.5 9.25,-62.5 9.25,-62.5z"></path><path stroke-linecap="butt" stroke-linejoin="miter" fill-opacity="0" stroke-miterlimit="4" stroke="rgb(255,255,255)" stroke-opacity="1" stroke-width="0" d=" M9.25,-62.5 C9.25,-62.5 9.25,62.5 9.25,62.5 C9.25,62.5 -9.25,62.5 -9.25,62.5 C-9.25,62.5 -9.25,-62.5 -9.25,-62.5 C-9.25,-62.5 9.25,-62.5 9.25,-62.5z"></path></g></g><g style="display: none;" transform="matrix(0.9969900250434875,0,0,1,601.23681640625,64.5)" opacity="0.2243419354838636"><g opacity="1" transform="matrix(1.0827900171279907,0,0,1,-341.25,0)"><path fill="rgb(0,0,0)" fill-opacity="1" d=" M9.25,-62.5 C9.25,-62.5 9.25,62.5 9.25,62.5 C9.25,62.5 -9.25,62.5 -9.25,62.5 C-9.25,62.5 -9.25,-62.5 -9.25,-62.5 C-9.25,-62.5 9.25,-62.5 9.25,-62.5z"></path><path stroke-linecap="butt" stroke-linejoin="miter" fill-opacity="0" stroke-miterlimit="4" stroke="rgb(255,255,255)" stroke-opacity="1" stroke-width="0" d=" M9.25,-62.5 C9.25,-62.5 9.25,62.5 9.25,62.5 C9.25,62.5 -9.25,62.5 -9.25,62.5 C-9.25,62.5 -9.25,-62.5 -9.25,-62.5 C-9.25,-62.5 9.25,-62.5 9.25,-62.5z"></path></g></g></g><g clip-path="url(#__lottie_element_169)" style="display: none;" transform="matrix(1,0,0,1,0,0)" opacity="1"><g style="display: none;" transform="matrix(0.9969900250434875,0,0,1,496.2088317871094,64.5)" opacity="0.22498709677420692"><g opacity="1" transform="matrix(1.0827900171279907,0,0,1,-341.25,0)"><path fill="rgb(0,0,0)" fill-opacity="1" d=" M9.25,-62.5 C9.25,-62.5 9.25,62.5 9.25,62.5 C9.25,62.5 -9.25,62.5 -9.25,62.5 C-9.25,62.5 -9.25,-62.5 -9.25,-62.5 C-9.25,-62.5 9.25,-62.5 9.25,-62.5z"></path><path stroke-linecap="butt" stroke-linejoin="miter" fill-opacity="0" stroke-miterlimit="4" stroke="rgb(255,255,255)" stroke-opacity="1" stroke-width="0" d=" M9.25,-62.5 C9.25,-62.5 9.25,62.5 9.25,62.5 C9.25,62.5 -9.25,62.5 -9.25,62.5 C-9.25,62.5 -9.25,-62.5 -9.25,-62.5 C-9.25,-62.5 9.25,-62.5 9.25,-62.5z"></path></g></g><g style="display: none;" transform="matrix(0.9969900250434875,0,0,1,548.2085571289062,64.5)" opacity="0.22498709677420692"><g opacity="1" transform="matrix(1.0827900171279907,0,0,1,-341.25,0)"><path fill="rgb(0,0,0)" fill-opacity="1" d=" M9.25,-62.5 C9.25,-62.5 9.25,62.5 9.25,62.5 C9.25,62.5 -9.25,62.5 -9.25,62.5 C-9.25,62.5 -9.25,-62.5 -9.25,-62.5 C-9.25,-62.5 9.25,-62.5 9.25,-62.5z"></path><path stroke-linecap="butt" stroke-linejoin="miter" fill-opacity="0" stroke-miterlimit="4" stroke="rgb(255,255,255)" stroke-opacity="1" stroke-width="0" d=" M9.25,-62.5 C9.25,-62.5 9.25,62.5 9.25,62.5 C9.25,62.5 -9.25,62.5 -9.25,62.5 C-9.25,62.5 -9.25,-62.5 -9.25,-62.5 C-9.25,-62.5 9.25,-62.5 9.25,-62.5z"></path></g></g><g style="display: none;" transform="matrix(0.9969900250434875,0,0,1,601.23681640625,64.5)" opacity="0.22498709677420692"><g opacity="1" transform="matrix(1.0827900171279907,0,0,1,-341.25,0)"><path fill="rgb(0,0,0)" fill-opacity="1" d=" M9.25,-62.5 C9.25,-62.5 9.25,62.5 9.25,62.5 C9.25,62.5 -9.25,62.5 -9.25,62.5 C-9.25,62.5 -9.25,-62.5 -9.25,-62.5 C-9.25,-62.5 9.25,-62.5 9.25,-62.5z"></path><path stroke-linecap="butt" stroke-linejoin="miter" fill-opacity="0" stroke-miterlimit="4" stroke="rgb(255,255,255)" stroke-opacity="1" stroke-width="0" d=" M9.25,-62.5 C9.25,-62.5 9.25,62.5 9.25,62.5 C9.25,62.5 -9.25,62.5 -9.25,62.5 C-9.25,62.5 -9.25,-62.5 -9.25,-62.5 C-9.25,-62.5 9.25,-62.5 9.25,-62.5z"></path></g></g></g><g clip-path="url(#__lottie_element_153)" style="display: block;" transform="matrix(1,0,0,1,0,0)" opacity="1"><g style="display: block;" transform="matrix(0.9969900250434875,0,0,1,496.2088317871094,64.5)" opacity="1"><g opacity="1" transform="matrix(1.0827900171279907,0,0,1,-341.25,0)"><path fill="rgb(0,0,0)" fill-opacity="1" d=" M9.25,-62.5 C9.25,-62.5 9.25,62.5 9.25,62.5 C9.25,62.5 -9.25,62.5 -9.25,62.5 C-9.25,62.5 -9.25,-62.5 -9.25,-62.5 C-9.25,-62.5 9.25,-62.5 9.25,-62.5z"></path><path stroke-linecap="butt" stroke-linejoin="miter" fill-opacity="0" stroke-miterlimit="4" stroke="rgb(255,255,255)" stroke-opacity="1" stroke-width="0" d=" M9.25,-62.5 C9.25,-62.5 9.25,62.5 9.25,62.5 C9.25,62.5 -9.25,62.5 -9.25,62.5 C-9.25,62.5 -9.25,-62.5 -9.25,-62.5 C-9.25,-62.5 9.25,-62.5 9.25,-62.5z"></path></g></g><g style="display: block;" transform="matrix(0.9969900250434875,0,0,1,548.2085571289062,64.5)" opacity="1"><g opacity="1" transform="matrix(1.0827900171279907,0,0,1,-341.25,0)"><path fill="rgb(0,0,0)" fill-opacity="1" d=" M9.25,-62.5 C9.25,-62.5 9.25,62.5 9.25,62.5 C9.25,62.5 -9.25,62.5 -9.25,62.5 C-9.25,62.5 -9.25,-62.5 -9.25,-62.5 C-9.25,-62.5 9.25,-62.5 9.25,-62.5z"></path><path stroke-linecap="butt" stroke-linejoin="miter" fill-opacity="0" stroke-miterlimit="4" stroke="rgb(255,255,255)" stroke-opacity="1" stroke-width="0" d=" M9.25,-62.5 C9.25,-62.5 9.25,62.5 9.25,62.5 C9.25,62.5 -9.25,62.5 -9.25,62.5 C-9.25,62.5 -9.25,-62.5 -9.25,-62.5 C-9.25,-62.5 9.25,-62.5 9.25,-62.5z"></path></g></g><g style="display: block;" transform="matrix(0.9969900250434875,0,0,1,601.23681640625,64.5)" opacity="1"><g opacity="1" transform="matrix(1.0827900171279907,0,0,1,-341.25,0)"><path fill="rgb(0,0,0)" fill-opacity="1" d=" M9.25,-62.5 C9.25,-62.5 9.25,62.5 9.25,62.5 C9.25,62.5 -9.25,62.5 -9.25,62.5 C-9.25,62.5 -9.25,-62.5 -9.25,-62.5 C-9.25,-62.5 9.25,-62.5 9.25,-62.5z"></path><path stroke-linecap="butt" stroke-linejoin="miter" fill-opacity="0" stroke-miterlimit="4" stroke="rgb(255,255,255)" stroke-opacity="1" stroke-width="0" d=" M9.25,-62.5 C9.25,-62.5 9.25,62.5 9.25,62.5 C9.25,62.5 -9.25,62.5 -9.25,62.5 C-9.25,62.5 -9.25,-62.5 -9.25,-62.5 C-9.25,-62.5 9.25,-62.5 9.25,-62.5z"></path></g></g><g style="display: block;" transform="matrix(0,0.9969900250434875,-1,0,208.34800720214844,457.078857421875)" opacity="1"><g opacity="1" transform="matrix(1.0160599946975708,0,0,1,-340.4739990234375,-0.15199999511241913)"><path fill="rgb(0,0,0)" fill-opacity="1" d=" M9.25,-62.5 C9.25,-62.5 9.25,62.5 9.25,62.5 C9.25,62.5 -9.25,62.5 -9.25,62.5 C-9.25,62.5 -9.25,-62.5 -9.25,-62.5 C-9.25,-62.5 9.25,-62.5 9.25,-62.5z"></path><path stroke-linecap="butt" stroke-linejoin="miter" fill-opacity="0" stroke-miterlimit="4" stroke="rgb(255,255,255)" stroke-opacity="1" stroke-width="0" d=" M9.25,-62.5 C9.25,-62.5 9.25,62.5 9.25,62.5 C9.25,62.5 -9.25,62.5 -9.25,62.5 C-9.25,62.5 -9.25,-62.5 -9.25,-62.5 C-9.25,-62.5 9.25,-62.5 9.25,-62.5z"></path></g></g></g></g><g clip-path="url(#__lottie_element_137)" transform="matrix(1,0,0,1,0,0)" opacity="1" style="display: block;"><g transform="matrix(0.9969900250434875,0,0,1,641.23681640625,64.5)" opacity="1" style="display: block;"><g opacity="1" transform="matrix(1.0827900171279907,0,0,1,-341.25,0)"><path fill="rgb(0,0,0)" fill-opacity="1" d=" M9.25,-62.5 C9.25,-62.5 9.25,62.5 9.25,62.5 C9.25,62.5 -9.25,62.5 -9.25,62.5 C-9.25,62.5 -9.25,-62.5 -9.25,-62.5 C-9.25,-62.5 9.25,-62.5 9.25,-62.5z"></path><path stroke-linecap="butt" stroke-linejoin="miter" fill-opacity="0" stroke-miterlimit="4" stroke="rgb(255,255,255)" stroke-opacity="1" stroke-width="0" d=" M9.25,-62.5 C9.25,-62.5 9.25,62.5 9.25,62.5 C9.25,62.5 -9.25,62.5 -9.25,62.5 C-9.25,62.5 -9.25,-62.5 -9.25,-62.5 C-9.25,-62.5 9.25,-62.5 9.25,-62.5z"></path></g></g><g transform="matrix(0,0.9969900250434875,-1,0,353.5,457.2088317871094)" opacity="1" style="display: block;"><g opacity="1" transform="matrix(1.0827900171279907,0,0,1,-341.25,0)"><path fill="rgb(0,0,0)" fill-opacity="1" d=" M9.25,-62.5 C9.25,-62.5 9.25,62.5 9.25,62.5 C9.25,62.5 -9.25,62.5 -9.25,62.5 C-9.25,62.5 -9.25,-62.5 -9.25,-62.5 C-9.25,-62.5 9.25,-62.5 9.25,-62.5z"></path><path stroke-linecap="butt" stroke-linejoin="miter" fill-opacity="0" stroke-miterlimit="4" stroke="rgb(255,255,255)" stroke-opacity="1" stroke-width="0" d=" M9.25,-62.5 C9.25,-62.5 9.25,62.5 9.25,62.5 C9.25,62.5 -9.25,62.5 -9.25,62.5 C-9.25,62.5 -9.25,-62.5 -9.25,-62.5 C-9.25,-62.5 9.25,-62.5 9.25,-62.5z"></path></g></g></g><g clip-path="url(#__lottie_element_123)" transform="matrix(1,0,0,1,0,0)" opacity="1" style="display: block;"><g transform="matrix(0,1,-1,0,400.42486572265625,45.40999984741211)" opacity="1" style="display: block;"><g opacity="1" transform="matrix(1,0,0,1.0847300291061401,19.09000015258789,-43.75699996948242)"><path fill="rgb(0,0,0)" fill-opacity="1" d=" M62.5,-8.41349983215332 C62.5,-8.41349983215332 62.5,8.41349983215332 62.5,8.41349983215332 C62.5,8.41349983215332 -62.5,8.41349983215332 -62.5,8.41349983215332 C-62.5,8.41349983215332 -62.5,-8.41349983215332 -62.5,-8.41349983215332 C-62.5,-8.41349983215332 62.5,-8.41349983215332 62.5,-8.41349983215332z"></path><path stroke-linecap="butt" stroke-linejoin="miter" fill-opacity="0" stroke-miterlimit="4" stroke="rgb(255,255,255)" stroke-opacity="1" stroke-width="0" d=" M62.5,-8.41349983215332 C62.5,-8.41349983215332 62.5,8.41349983215332 62.5,8.41349983215332 C62.5,8.41349983215332 -62.5,8.41349983215332 -62.5,8.41349983215332 C-62.5,8.41349983215332 -62.5,-8.41349983215332 -62.5,-8.41349983215332 C-62.5,-8.41349983215332 62.5,-8.41349983215332 62.5,-8.41349983215332z"></path></g></g><g transform="matrix(1,0,0,1,478.4100036621094,83.28467559814453)" opacity="1" style="display: block;"><g opacity="1" transform="matrix(1,0,0,1,0,0)"><path fill="rgb(0,0,0)" fill-opacity="1" d=" M81.58999633789062,-81.25700378417969 C81.58999633789062,-81.25700378417969 -43.40999984741211,-29.381999969482422 -43.40999984741211,-29.381999969482422 C-43.40999984741211,-29.381999969482422 -43.40999984741211,-10.381999969482422 -43.40999984741211,-10.381999969482422 C-43.40999984741211,-10.381999969482422 81.58999633789062,-62.69499969482422 81.58999633789062,-62.69499969482422 C81.58999633789062,-62.69499969482422 81.58999633789062,-81.25700378417969 81.58999633789062,-81.25700378417969z"></path><path stroke-linecap="butt" stroke-linejoin="miter" fill-opacity="0" stroke-miterlimit="4" stroke="rgb(255,255,255)" stroke-opacity="1" stroke-width="0" d=" M81.58999633789062,-81.25700378417969 C81.58999633789062,-81.25700378417969 -43.40999984741211,-29.381999969482422 -43.40999984741211,-29.381999969482422 C-43.40999984741211,-29.381999969482422 -43.40999984741211,-10.381999969482422 -43.40999984741211,-10.381999969482422 C-43.40999984741211,-10.381999969482422 81.58999633789062,-62.69499969482422 81.58999633789062,-62.69499969482422 C81.58999633789062,-62.69499969482422 81.58999633789062,-81.25700378417969 81.58999633789062,-81.25700378417969z"></path></g></g><g transform="matrix(-1,0,0,1,516.5900268554688,137.35484313964844)" opacity="1" style="display: block;"><g opacity="1" transform="matrix(1,0,0,1,0,0)"><path fill="rgb(0,0,0)" fill-opacity="1" d=" M81.58999633789062,-81.25700378417969 C81.58999633789062,-81.25700378417969 -43.40999984741211,-29.381999969482422 -43.40999984741211,-29.381999969482422 C-43.40999984741211,-29.381999969482422 -43.40999984741211,-10.381999969482422 -43.40999984741211,-10.381999969482422 C-43.40999984741211,-10.381999969482422 81.58999633789062,-62.69499969482422 81.58999633789062,-62.69499969482422 C81.58999633789062,-62.69499969482422 81.58999633789062,-81.25700378417969 81.58999633789062,-81.25700378417969z"></path><path stroke-linecap="butt" stroke-linejoin="miter" fill-opacity="0" stroke-miterlimit="4" stroke="rgb(255,255,255)" stroke-opacity="1" stroke-width="0" d=" M81.58999633789062,-81.25700378417969 C81.58999633789062,-81.25700378417969 -43.40999984741211,-29.381999969482422 -43.40999984741211,-29.381999969482422 C-43.40999984741211,-29.381999969482422 -43.40999984741211,-10.381999969482422 -43.40999984741211,-10.381999969482422 C-43.40999984741211,-10.381999969482422 81.58999633789062,-62.69499969482422 81.58999633789062,-62.69499969482422 C81.58999633789062,-62.69499969482422 81.58999633789062,-81.25700378417969 81.58999633789062,-81.25700378417969z"></path></g></g></g><g clip-path="url(#__lottie_element_105)" transform="matrix(1,0,0,1,0,0)" opacity="1" style="display: block;"><g transform="matrix(0,-1.0148975849151611,1.000005841255188,0,639.9053344726562,-375.42718505859375)" opacity="1" style="display: block;"><g opacity="1" transform="matrix(1.0342999696731567,0,0,0.931119978427887,-433.2770080566406,1.7330000400543213)"><path fill="rgb(0,0,0)" fill-opacity="1" d=" M58.72249984741211,-10.233499526977539 C58.72249984741211,-10.233499526977539 58.72249984741211,10.233499526977539 58.72249984741211,10.233499526977539 C58.72249984741211,10.233499526977539 -58.72249984741211,10.233499526977539 -58.72249984741211,10.233499526977539 C-58.72249984741211,10.233499526977539 -58.72249984741211,-10.233499526977539 -58.72249984741211,-10.233499526977539 C-58.72249984741211,-10.233499526977539 58.72249984741211,-10.233499526977539 58.72249984741211,-10.233499526977539z"></path><path stroke-linecap="butt" stroke-linejoin="miter" fill-opacity="0" stroke-miterlimit="4" stroke="rgb(255,255,255)" stroke-opacity="1" stroke-width="0" d=" M58.72249984741211,-10.233499526977539 C58.72249984741211,-10.233499526977539 58.72249984741211,10.233499526977539 58.72249984741211,10.233499526977539 C58.72249984741211,10.233499526977539 -58.72249984741211,10.233499526977539 -58.72249984741211,10.233499526977539 C-58.72249984741211,10.233499526977539 -58.72249984741211,-10.233499526977539 -58.72249984741211,-10.233499526977539 C-58.72249984741211,-10.233499526977539 58.72249984741211,-10.233499526977539 58.72249984741211,-10.233499526977539z"></path></g></g><g transform="matrix(0,-1.0148975849151611,1.000005841255188,0,586.5347290039062,-375.13043212890625)" opacity="1" style="display: block;"><g opacity="1" transform="matrix(1.0342999696731567,0,0,0.931119978427887,-433.26300048828125,0.9610000252723694)"><path fill="rgb(0,0,0)" fill-opacity="1" d=" M58.72249984741211,-10.233499526977539 C58.72249984741211,-10.233499526977539 58.72249984741211,10.233499526977539 58.72249984741211,10.233499526977539 C58.72249984741211,10.233499526977539 -58.72249984741211,10.233499526977539 -58.72249984741211,10.233499526977539 C-58.72249984741211,10.233499526977539 -58.72249984741211,-10.233499526977539 -58.72249984741211,-10.233499526977539 C-58.72249984741211,-10.233499526977539 58.72249984741211,-10.233499526977539 58.72249984741211,-10.233499526977539z"></path><path stroke-linecap="butt" stroke-linejoin="miter" fill-opacity="0" stroke-miterlimit="4" stroke="rgb(255,255,255)" stroke-opacity="1" stroke-width="0" d=" M58.72249984741211,-10.233499526977539 C58.72249984741211,-10.233499526977539 58.72249984741211,10.233499526977539 58.72249984741211,10.233499526977539 C58.72249984741211,10.233499526977539 -58.72249984741211,10.233499526977539 -58.72249984741211,10.233499526977539 C-58.72249984741211,10.233499526977539 -58.72249984741211,-10.233499526977539 -58.72249984741211,-10.233499526977539 C-58.72249984741211,-10.233499526977539 58.72249984741211,-10.233499526977539 58.72249984741211,-10.233499526977539z"></path></g></g><g transform="matrix(0,-1.0148975849151611,1.000005841255188,0,614.7628173828125,-373.4474182128906)" opacity="1" style="display: block;"><g opacity="1" transform="matrix(0.14452999830245972,-0.00004036038808408193,0.001709149219095707,6.120439529418945,-484.54400634765625,25.569000244140625)"><path fill="rgb(0,0,0)" fill-opacity="1" d=" M58.72249984741211,-10.133500099182129 C58.72249984741211,-10.133500099182129 58.72249984741211,10.133500099182129 58.72249984741211,10.133500099182129 C58.72249984741211,10.133500099182129 -58.72249984741211,10.133500099182129 -58.72249984741211,10.133500099182129 C-58.72249984741211,10.133500099182129 -58.72249984741211,-10.133500099182129 -58.72249984741211,-10.133500099182129 C-58.72249984741211,-10.133500099182129 58.72249984741211,-10.133500099182129 58.72249984741211,-10.133500099182129z"></path><path stroke-linecap="butt" stroke-linejoin="miter" fill-opacity="0" stroke-miterlimit="4" stroke="rgb(255,255,255)" stroke-opacity="1" stroke-width="0" d=" M58.72249984741211,-10.133500099182129 C58.72249984741211,-10.133500099182129 58.72249984741211,10.133500099182129 58.72249984741211,10.133500099182129 C58.72249984741211,10.133500099182129 -58.72249984741211,10.133500099182129 -58.72249984741211,10.133500099182129 C-58.72249984741211,10.133500099182129 -58.72249984741211,-10.133500099182129 -58.72249984741211,-10.133500099182129 C-58.72249984741211,-10.133500099182129 58.72249984741211,-10.133500099182129 58.72249984741211,-10.133500099182129z"></path></g></g><g transform="matrix(0,-1.0148975849151611,1.000005841255188,0,691.7061157226562,-375.05535888671875)" opacity="1" style="display: block;"><g opacity="1" transform="matrix(1.0342999696731567,0,0,0.931119978427887,-433.2770080566406,1.7330000400543213)"><path fill="rgb(0,0,0)" fill-opacity="1" d=" M58.72249984741211,-10.233499526977539 C58.72249984741211,-10.233499526977539 58.72249984741211,10.233499526977539 58.72249984741211,10.233499526977539 C58.72249984741211,10.233499526977539 -58.72249984741211,10.233499526977539 -58.72249984741211,10.233499526977539 C-58.72249984741211,10.233499526977539 -58.72249984741211,-10.233499526977539 -58.72249984741211,-10.233499526977539 C-58.72249984741211,-10.233499526977539 58.72249984741211,-10.233499526977539 58.72249984741211,-10.233499526977539z"></path><path stroke-linecap="butt" stroke-linejoin="miter" fill-opacity="0" stroke-miterlimit="4" stroke="rgb(255,255,255)" stroke-opacity="1" stroke-width="0" d=" M58.72249984741211,-10.233499526977539 C58.72249984741211,-10.233499526977539 58.72249984741211,10.233499526977539 58.72249984741211,10.233499526977539 C58.72249984741211,10.233499526977539 -58.72249984741211,10.233499526977539 -58.72249984741211,10.233499526977539 C-58.72249984741211,10.233499526977539 -58.72249984741211,-10.233499526977539 -58.72249984741211,-10.233499526977539 C-58.72249984741211,-10.233499526977539 58.72249984741211,-10.233499526977539 58.72249984741211,-10.233499526977539z"></path></g></g></g><g clip-path="url(#__lottie_element_28)" transform="matrix(1,0,0,1.000005841255188,0.000030517578125,-0.00037775939563289285)" opacity="1" style="display: block;"><g clip-path="url(#__lottie_element_91)" transform="matrix(1,0,0,1,0,0)" opacity="1" style="display: none;"><g transform="matrix(1,0,0,1,496.5,113.0250015258789)" opacity="1" style="display: block;"><g opacity="1" transform="matrix(1,0,0,1,287.92999267578125,-49.44599914550781)"><path fill="rgb(0,0,0)" fill-opacity="1" d=" M62.5,-8.829000473022461 C62.5,-8.829000473022461 62.5,8.829000473022461 62.5,8.829000473022461 C62.5,8.829000473022461 -62.5,8.829000473022461 -62.5,8.829000473022461 C-62.5,8.829000473022461 -62.5,-8.829000473022461 -62.5,-8.829000473022461 C-62.5,-8.829000473022461 62.5,-8.829000473022461 62.5,-8.829000473022461z"></path><path stroke-linecap="butt" stroke-linejoin="miter" fill-opacity="0" stroke-miterlimit="4" stroke="rgb(255,255,255)" stroke-opacity="1" stroke-width="0" d=" M62.5,-8.829000473022461 C62.5,-8.829000473022461 62.5,8.829000473022461 62.5,8.829000473022461 C62.5,8.829000473022461 -62.5,8.829000473022461 -62.5,8.829000473022461 C-62.5,8.829000473022461 -62.5,-8.829000473022461 -62.5,-8.829000473022461 C-62.5,-8.829000473022461 62.5,-8.829000473022461 62.5,-8.829000473022461z"></path></g></g><g transform="matrix(1,0,0,1,496.57000732421875,113.0250015258789)" opacity="1" style="display: block;"><g opacity="1" transform="matrix(1,0,0,1,287.92999267578125,-49.44599914550781)"><path fill="rgb(0,0,0)" fill-opacity="1" d=" M62.5,-8.829000473022461 C62.5,-8.829000473022461 62.5,8.829000473022461 62.5,8.829000473022461 C62.5,8.829000473022461 -62.5,8.829000473022461 -62.5,8.829000473022461 C-62.5,8.829000473022461 -62.5,-8.829000473022461 -62.5,-8.829000473022461 C-62.5,-8.829000473022461 62.5,-8.829000473022461 62.5,-8.829000473022461z"></path><path stroke-linecap="butt" stroke-linejoin="miter" fill-opacity="0" stroke-miterlimit="4" stroke="rgb(255,255,255)" stroke-opacity="1" stroke-width="0" d=" M62.5,-8.829000473022461 C62.5,-8.829000473022461 62.5,8.829000473022461 62.5,8.829000473022461 C62.5,8.829000473022461 -62.5,8.829000473022461 -62.5,8.829000473022461 C-62.5,8.829000473022461 -62.5,-8.829000473022461 -62.5,-8.829000473022461 C-62.5,-8.829000473022461 62.5,-8.829000473022461 62.5,-8.829000473022461z"></path></g></g><g transform="matrix(1,0,0,1,496.57000732421875,113.0250015258789)" opacity="1" style="display: block;"><g opacity="1" transform="matrix(1,0,0,1,287.92999267578125,-49.44599914550781)"><path fill="rgb(0,0,0)" fill-opacity="1" d=" M62.5,-8.829000473022461 C62.5,-8.829000473022461 62.5,8.829000473022461 62.5,8.829000473022461 C62.5,8.829000473022461 -62.5,8.829000473022461 -62.5,8.829000473022461 C-62.5,8.829000473022461 -62.5,-8.829000473022461 -62.5,-8.829000473022461 C-62.5,-8.829000473022461 62.5,-8.829000473022461 62.5,-8.829000473022461z"></path><path stroke-linecap="butt" stroke-linejoin="miter" fill-opacity="0" stroke-miterlimit="4" stroke="rgb(255,255,255)" stroke-opacity="1" stroke-width="0" d=" M62.5,-8.829000473022461 C62.5,-8.829000473022461 62.5,8.829000473022461 62.5,8.829000473022461 C62.5,8.829000473022461 -62.5,8.829000473022461 -62.5,8.829000473022461 C-62.5,8.829000473022461 -62.5,-8.829000473022461 -62.5,-8.829000473022461 C-62.5,-8.829000473022461 62.5,-8.829000473022461 62.5,-8.829000473022461z"></path></g></g></g><g clip-path="url(#__lottie_element_77)" style="display: none;" transform="matrix(1,0,0,1,0,0)" opacity="1"><g style="display: block;" transform="matrix(1,0,0,1,496.5,113.0250015258789)" opacity="1"><g opacity="1" transform="matrix(1,0,0,1,287.92999267578125,-49.44599914550781)"><path fill="rgb(0,0,0)" fill-opacity="1" d=" M62.5,-8.829000473022461 C62.5,-8.829000473022461 62.5,8.829000473022461 62.5,8.829000473022461 C62.5,8.829000473022461 -62.5,8.829000473022461 -62.5,8.829000473022461 C-62.5,8.829000473022461 -62.5,-8.829000473022461 -62.5,-8.829000473022461 C-62.5,-8.829000473022461 62.5,-8.829000473022461 62.5,-8.829000473022461z"></path><path stroke-linecap="butt" stroke-linejoin="miter" fill-opacity="0" stroke-miterlimit="4" stroke="rgb(255,255,255)" stroke-opacity="1" stroke-width="0" d=" M62.5,-8.829000473022461 C62.5,-8.829000473022461 62.5,8.829000473022461 62.5,8.829000473022461 C62.5,8.829000473022461 -62.5,8.829000473022461 -62.5,8.829000473022461 C-62.5,8.829000473022461 -62.5,-8.829000473022461 -62.5,-8.829000473022461 C-62.5,-8.829000473022461 62.5,-8.829000473022461 62.5,-8.829000473022461z"></path></g></g><g style="display: block;" transform="matrix(1,0,0,1,496.57000732421875,113.0250015258789)" opacity="1"><g opacity="1" transform="matrix(1,0,0,1,287.92999267578125,-49.44599914550781)"><path fill="rgb(0,0,0)" fill-opacity="1" d=" M62.5,-8.829000473022461 C62.5,-8.829000473022461 62.5,8.829000473022461 62.5,8.829000473022461 C62.5,8.829000473022461 -62.5,8.829000473022461 -62.5,8.829000473022461 C-62.5,8.829000473022461 -62.5,-8.829000473022461 -62.5,-8.829000473022461 C-62.5,-8.829000473022461 62.5,-8.829000473022461 62.5,-8.829000473022461z"></path><path stroke-linecap="butt" stroke-linejoin="miter" fill-opacity="0" stroke-miterlimit="4" stroke="rgb(255,255,255)" stroke-opacity="1" stroke-width="0" d=" M62.5,-8.829000473022461 C62.5,-8.829000473022461 62.5,8.829000473022461 62.5,8.829000473022461 C62.5,8.829000473022461 -62.5,8.829000473022461 -62.5,8.829000473022461 C-62.5,8.829000473022461 -62.5,-8.829000473022461 -62.5,-8.829000473022461 C-62.5,-8.829000473022461 62.5,-8.829000473022461 62.5,-8.829000473022461z"></path></g></g><g style="display: block;" transform="matrix(1,0,0,1,496.57000732421875,113.0250015258789)" opacity="1"><g opacity="1" transform="matrix(1,0,0,1,287.92999267578125,-49.44599914550781)"><path fill="rgb(0,0,0)" fill-opacity="1" d=" M62.5,-8.829000473022461 C62.5,-8.829000473022461 62.5,8.829000473022461 62.5,8.829000473022461 C62.5,8.829000473022461 -62.5,8.829000473022461 -62.5,8.829000473022461 C-62.5,8.829000473022461 -62.5,-8.829000473022461 -62.5,-8.829000473022461 C-62.5,-8.829000473022461 62.5,-8.829000473022461 62.5,-8.829000473022461z"></path><path stroke-linecap="butt" stroke-linejoin="miter" fill-opacity="0" stroke-miterlimit="4" stroke="rgb(255,255,255)" stroke-opacity="1" stroke-width="0" d=" M62.5,-8.829000473022461 C62.5,-8.829000473022461 62.5,8.829000473022461 62.5,8.829000473022461 C62.5,8.829000473022461 -62.5,8.829000473022461 -62.5,8.829000473022461 C-62.5,8.829000473022461 -62.5,-8.829000473022461 -62.5,-8.829000473022461 C-62.5,-8.829000473022461 62.5,-8.829000473022461 62.5,-8.829000473022461z"></path></g></g></g><g clip-path="url(#__lottie_element_63)" style="display: none;" transform="matrix(1,0,0,1,0,0)" opacity="1"><g style="display: block;" transform="matrix(1,0,0,1,496.5,113.0250015258789)" opacity="1"><g opacity="1" transform="matrix(1,0,0,1,287.92999267578125,-49.44599914550781)"><path fill="rgb(0,0,0)" fill-opacity="1" d=" M62.5,-8.829000473022461 C62.5,-8.829000473022461 62.5,8.829000473022461 62.5,8.829000473022461 C62.5,8.829000473022461 -62.5,8.829000473022461 -62.5,8.829000473022461 C-62.5,8.829000473022461 -62.5,-8.829000473022461 -62.5,-8.829000473022461 C-62.5,-8.829000473022461 62.5,-8.829000473022461 62.5,-8.829000473022461z"></path><path stroke-linecap="butt" stroke-linejoin="miter" fill-opacity="0" stroke-miterlimit="4" stroke="rgb(255,255,255)" stroke-opacity="1" stroke-width="0" d=" M62.5,-8.829000473022461 C62.5,-8.829000473022461 62.5,8.829000473022461 62.5,8.829000473022461 C62.5,8.829000473022461 -62.5,8.829000473022461 -62.5,8.829000473022461 C-62.5,8.829000473022461 -62.5,-8.829000473022461 -62.5,-8.829000473022461 C-62.5,-8.829000473022461 62.5,-8.829000473022461 62.5,-8.829000473022461z"></path></g></g><g style="display: block;" transform="matrix(1,0,0,1,496.57000732421875,113.0250015258789)" opacity="1"><g opacity="1" transform="matrix(1,0,0,1,287.92999267578125,-49.44599914550781)"><path fill="rgb(0,0,0)" fill-opacity="1" d=" M62.5,-8.829000473022461 C62.5,-8.829000473022461 62.5,8.829000473022461 62.5,8.829000473022461 C62.5,8.829000473022461 -62.5,8.829000473022461 -62.5,8.829000473022461 C-62.5,8.829000473022461 -62.5,-8.829000473022461 -62.5,-8.829000473022461 C-62.5,-8.829000473022461 62.5,-8.829000473022461 62.5,-8.829000473022461z"></path><path stroke-linecap="butt" stroke-linejoin="miter" fill-opacity="0" stroke-miterlimit="4" stroke="rgb(255,255,255)" stroke-opacity="1" stroke-width="0" d=" M62.5,-8.829000473022461 C62.5,-8.829000473022461 62.5,8.829000473022461 62.5,8.829000473022461 C62.5,8.829000473022461 -62.5,8.829000473022461 -62.5,8.829000473022461 C-62.5,8.829000473022461 -62.5,-8.829000473022461 -62.5,-8.829000473022461 C-62.5,-8.829000473022461 62.5,-8.829000473022461 62.5,-8.829000473022461z"></path></g></g><g style="display: block;" transform="matrix(1,0,0,1,496.57000732421875,113.0250015258789)" opacity="1"><g opacity="1" transform="matrix(1,0,0,1,287.92999267578125,-49.44599914550781)"><path fill="rgb(0,0,0)" fill-opacity="1" d=" M62.5,-8.829000473022461 C62.5,-8.829000473022461 62.5,8.829000473022461 62.5,8.829000473022461 C62.5,8.829000473022461 -62.5,8.829000473022461 -62.5,8.829000473022461 C-62.5,8.829000473022461 -62.5,-8.829000473022461 -62.5,-8.829000473022461 C-62.5,-8.829000473022461 62.5,-8.829000473022461 62.5,-8.829000473022461z"></path><path stroke-linecap="butt" stroke-linejoin="miter" fill-opacity="0" stroke-miterlimit="4" stroke="rgb(255,255,255)" stroke-opacity="1" stroke-width="0" d=" M62.5,-8.829000473022461 C62.5,-8.829000473022461 62.5,8.829000473022461 62.5,8.829000473022461 C62.5,8.829000473022461 -62.5,8.829000473022461 -62.5,8.829000473022461 C-62.5,8.829000473022461 -62.5,-8.829000473022461 -62.5,-8.829000473022461 C-62.5,-8.829000473022461 62.5,-8.829000473022461 62.5,-8.829000473022461z"></path></g></g></g><g clip-path="url(#__lottie_element_49)" style="display: none;" transform="matrix(1,0,0,1,0,0)" opacity="1"><g style="display: block;" transform="matrix(1,0,0,1,496.5,113.0250015258789)" opacity="1"><g opacity="1" transform="matrix(1,0,0,1,287.92999267578125,-49.44599914550781)"><path fill="rgb(0,0,0)" fill-opacity="1" d=" M62.5,-8.829000473022461 C62.5,-8.829000473022461 62.5,8.829000473022461 62.5,8.829000473022461 C62.5,8.829000473022461 -62.5,8.829000473022461 -62.5,8.829000473022461 C-62.5,8.829000473022461 -62.5,-8.829000473022461 -62.5,-8.829000473022461 C-62.5,-8.829000473022461 62.5,-8.829000473022461 62.5,-8.829000473022461z"></path><path stroke-linecap="butt" stroke-linejoin="miter" fill-opacity="0" stroke-miterlimit="4" stroke="rgb(255,255,255)" stroke-opacity="1" stroke-width="0" d=" M62.5,-8.829000473022461 C62.5,-8.829000473022461 62.5,8.829000473022461 62.5,8.829000473022461 C62.5,8.829000473022461 -62.5,8.829000473022461 -62.5,8.829000473022461 C-62.5,8.829000473022461 -62.5,-8.829000473022461 -62.5,-8.829000473022461 C-62.5,-8.829000473022461 62.5,-8.829000473022461 62.5,-8.829000473022461z"></path></g></g><g style="display: block;" transform="matrix(1,0,0,1,496.57000732421875,113.0250015258789)" opacity="1"><g opacity="1" transform="matrix(1,0,0,1,287.92999267578125,-49.44599914550781)"><path fill="rgb(0,0,0)" fill-opacity="1" d=" M62.5,-8.829000473022461 C62.5,-8.829000473022461 62.5,8.829000473022461 62.5,8.829000473022461 C62.5,8.829000473022461 -62.5,8.829000473022461 -62.5,8.829000473022461 C-62.5,8.829000473022461 -62.5,-8.829000473022461 -62.5,-8.829000473022461 C-62.5,-8.829000473022461 62.5,-8.829000473022461 62.5,-8.829000473022461z"></path><path stroke-linecap="butt" stroke-linejoin="miter" fill-opacity="0" stroke-miterlimit="4" stroke="rgb(255,255,255)" stroke-opacity="1" stroke-width="0" d=" M62.5,-8.829000473022461 C62.5,-8.829000473022461 62.5,8.829000473022461 62.5,8.829000473022461 C62.5,8.829000473022461 -62.5,8.829000473022461 -62.5,8.829000473022461 C-62.5,8.829000473022461 -62.5,-8.829000473022461 -62.5,-8.829000473022461 C-62.5,-8.829000473022461 62.5,-8.829000473022461 62.5,-8.829000473022461z"></path></g></g><g style="display: block;" transform="matrix(1,0,0,1,496.57000732421875,113.0250015258789)" opacity="1"><g opacity="1" transform="matrix(1,0,0,1,287.92999267578125,-49.44599914550781)"><path fill="rgb(0,0,0)" fill-opacity="1" d=" M62.5,-8.829000473022461 C62.5,-8.829000473022461 62.5,8.829000473022461 62.5,8.829000473022461 C62.5,8.829000473022461 -62.5,8.829000473022461 -62.5,8.829000473022461 C-62.5,8.829000473022461 -62.5,-8.829000473022461 -62.5,-8.829000473022461 C-62.5,-8.829000473022461 62.5,-8.829000473022461 62.5,-8.829000473022461z"></path><path stroke-linecap="butt" stroke-linejoin="miter" fill-opacity="0" stroke-miterlimit="4" stroke="rgb(255,255,255)" stroke-opacity="1" stroke-width="0" d=" M62.5,-8.829000473022461 C62.5,-8.829000473022461 62.5,8.829000473022461 62.5,8.829000473022461 C62.5,8.829000473022461 -62.5,8.829000473022461 -62.5,8.829000473022461 C-62.5,8.829000473022461 -62.5,-8.829000473022461 -62.5,-8.829000473022461 C-62.5,-8.829000473022461 62.5,-8.829000473022461 62.5,-8.829000473022461z"></path></g></g></g><g clip-path="url(#__lottie_element_32)" style="display: block;" transform="matrix(1,0,0,1,0,0)" opacity="1"><g style="display: block;" transform="matrix(1,0,0,1,496.57000732421875,167.61700439453125)" opacity="1"><g opacity="1" transform="matrix(1,0,0,1,287.92999267578125,-49.44599914550781)"><path fill="rgb(0,0,0)" fill-opacity="1" d=" M62.5,-8.829000473022461 C62.5,-8.829000473022461 62.5,8.829000473022461 62.5,8.829000473022461 C62.5,8.829000473022461 -62.5,8.829000473022461 -62.5,8.829000473022461 C-62.5,8.829000473022461 -62.5,-8.829000473022461 -62.5,-8.829000473022461 C-62.5,-8.829000473022461 62.5,-8.829000473022461 62.5,-8.829000473022461z"></path><path stroke-linecap="butt" stroke-linejoin="miter" fill-opacity="0" stroke-miterlimit="4" stroke="rgb(255,255,255)" stroke-opacity="1" stroke-width="0" d=" M62.5,-8.829000473022461 C62.5,-8.829000473022461 62.5,8.829000473022461 62.5,8.829000473022461 C62.5,8.829000473022461 -62.5,8.829000473022461 -62.5,8.829000473022461 C-62.5,8.829000473022461 -62.5,-8.829000473022461 -62.5,-8.829000473022461 C-62.5,-8.829000473022461 62.5,-8.829000473022461 62.5,-8.829000473022461z"></path></g></g><g style="display: block;" transform="matrix(1,0,0,1,496.57000732421875,113.0250015258789)" opacity="1"><g opacity="1" transform="matrix(1,0,0,1,287.92999267578125,-49.44599914550781)"><path fill="rgb(0,0,0)" fill-opacity="1" d=" M62.5,-8.829000473022461 C62.5,-8.829000473022461 62.5,8.829000473022461 62.5,8.829000473022461 C62.5,8.829000473022461 -62.5,8.829000473022461 -62.5,8.829000473022461 C-62.5,8.829000473022461 -62.5,-8.829000473022461 -62.5,-8.829000473022461 C-62.5,-8.829000473022461 62.5,-8.829000473022461 62.5,-8.829000473022461z"></path><path stroke-linecap="butt" stroke-linejoin="miter" fill-opacity="0" stroke-miterlimit="4" stroke="rgb(255,255,255)" stroke-opacity="1" stroke-width="0" d=" M62.5,-8.829000473022461 C62.5,-8.829000473022461 62.5,8.829000473022461 62.5,8.829000473022461 C62.5,8.829000473022461 -62.5,8.829000473022461 -62.5,8.829000473022461 C-62.5,8.829000473022461 -62.5,-8.829000473022461 -62.5,-8.829000473022461 C-62.5,-8.829000473022461 62.5,-8.829000473022461 62.5,-8.829000473022461z"></path></g></g><g style="display: block;" transform="matrix(1,0,0,6.610000133514404,479.2440185546875,613.7955322265625)" opacity="1"><g opacity="1" transform="matrix(1,0,0,1,252.75599670410156,-70.22699737548828)"><path fill="rgb(0,0,0)" fill-opacity="1" d=" M10,-22.32900047302246 C10,-22.32900047302246 10,-3.670999526977539 10,-3.670999526977539 C10,-3.670999526977539 -10,-3.670999526977539 -10,-3.670999526977539 C-10,-3.670999526977539 -10,-22.32900047302246 -10,-22.32900047302246 C-10,-22.32900047302246 10,-22.32900047302246 10,-22.32900047302246z"></path><path stroke-linecap="butt" stroke-linejoin="miter" fill-opacity="0" stroke-miterlimit="4" stroke="rgb(255,255,255)" stroke-opacity="1" stroke-width="0" d=" M10,-22.32900047302246 C10,-22.32900047302246 10,-3.670999526977539 10,-3.670999526977539 C10,-3.670999526977539 -10,-3.670999526977539 -10,-3.670999526977539 C-10,-3.670999526977539 -10,-22.32900047302246 -10,-22.32900047302246 C-10,-22.32900047302246 10,-22.32900047302246 10,-22.32900047302246z"></path></g></g><g style="display: block;" transform="matrix(1,0,0,1,496.57000732421875,60.275001525878906)" opacity="1"><g opacity="1" transform="matrix(1,0,0,1,287.92999267578125,-49.44599914550781)"><path fill="rgb(0,0,0)" fill-opacity="1" d=" M62.5,-8.829000473022461 C62.5,-8.829000473022461 62.5,8.829000473022461 62.5,8.829000473022461 C62.5,8.829000473022461 -62.5,8.829000473022461 -62.5,8.829000473022461 C-62.5,8.829000473022461 -62.5,-8.829000473022461 -62.5,-8.829000473022461 C-62.5,-8.829000473022461 62.5,-8.829000473022461 62.5,-8.829000473022461z"></path><path stroke-linecap="butt" stroke-linejoin="miter" fill-opacity="0" stroke-miterlimit="4" stroke="rgb(255,255,255)" stroke-opacity="1" stroke-width="0" d=" M62.5,-8.829000473022461 C62.5,-8.829000473022461 62.5,8.829000473022461 62.5,8.829000473022461 C62.5,8.829000473022461 -62.5,8.829000473022461 -62.5,8.829000473022461 C-62.5,8.829000473022461 -62.5,-8.829000473022461 -62.5,-8.829000473022461 C-62.5,-8.829000473022461 62.5,-8.829000473022461 62.5,-8.829000473022461z"></path></g></g></g></g><g clip-path="url(#__lottie_element_8)" transform="matrix(1,0,0,1,0,0)" opacity="1" style="display: block;"><g transform="matrix(1.002150058746338,0,0,1,494.5349426269531,64.51802825927734)" opacity="1" style="display: block;"><g opacity="1" transform="matrix(1.0135300159454346,0,0,1,433,-53.24700164794922)"><path fill="rgb(0,0,0)" fill-opacity="1" d=" M61.5,-9.253000259399414 C61.5,-9.253000259399414 61.5,9.253000259399414 61.5,9.253000259399414 C61.5,9.253000259399414 -61.5,9.253000259399414 -61.5,9.253000259399414 C-61.5,9.253000259399414 -61.5,-9.253000259399414 -61.5,-9.253000259399414 C-61.5,-9.253000259399414 61.5,-9.253000259399414 61.5,-9.253000259399414z"></path><path stroke-linecap="butt" stroke-linejoin="miter" fill-opacity="0" stroke-miterlimit="4" stroke="rgb(255,255,255)" stroke-opacity="1" stroke-width="0" d=" M61.5,-9.253000259399414 C61.5,-9.253000259399414 61.5,9.253000259399414 61.5,9.253000259399414 C61.5,9.253000259399414 -61.5,9.253000259399414 -61.5,9.253000259399414 C-61.5,9.253000259399414 -61.5,-9.253000259399414 -61.5,-9.253000259399414 C-61.5,-9.253000259399414 61.5,-9.253000259399414 61.5,-9.253000259399414z"></path></g></g><g transform="matrix(1.002150058746338,0,0,1,494.5349426269531,170.976318359375)" opacity="1" style="display: block;"><g opacity="1" transform="matrix(1.0135300159454346,0,0,1,433,-53.24700164794922)"><path fill="rgb(0,0,0)" fill-opacity="1" d=" M61.5,-9.253000259399414 C61.5,-9.253000259399414 61.5,9.253000259399414 61.5,9.253000259399414 C61.5,9.253000259399414 -61.5,9.253000259399414 -61.5,9.253000259399414 C-61.5,9.253000259399414 -61.5,-9.253000259399414 -61.5,-9.253000259399414 C-61.5,-9.253000259399414 61.5,-9.253000259399414 61.5,-9.253000259399414z"></path><path stroke-linecap="butt" stroke-linejoin="miter" fill-opacity="0" stroke-miterlimit="4" stroke="rgb(255,255,255)" stroke-opacity="1" stroke-width="0" d=" M61.5,-9.253000259399414 C61.5,-9.253000259399414 61.5,9.253000259399414 61.5,9.253000259399414 C61.5,9.253000259399414 -61.5,9.253000259399414 -61.5,9.253000259399414 C-61.5,9.253000259399414 -61.5,-9.253000259399414 -61.5,-9.253000259399414 C-61.5,-9.253000259399414 61.5,-9.253000259399414 61.5,-9.253000259399414z"></path></g></g><g transform="matrix(0,1.002150058746338,-1,0,822.025390625,-369.3970642089844)" opacity="1" style="display: block;"><g opacity="1" transform="matrix(1.0135300159454346,0,0,1,433,-53.24700164794922)"><path fill="rgb(0,0,0)" fill-opacity="1" d=" M61.5,-9.253000259399414 C61.5,-9.253000259399414 61.5,9.253000259399414 61.5,9.253000259399414 C61.5,9.253000259399414 -61.5,9.253000259399414 -61.5,9.253000259399414 C-61.5,9.253000259399414 -61.5,-9.253000259399414 -61.5,-9.253000259399414 C-61.5,-9.253000259399414 61.5,-9.253000259399414 61.5,-9.253000259399414z"></path><path stroke-linecap="butt" stroke-linejoin="miter" fill-opacity="0" stroke-miterlimit="4" stroke="rgb(255,255,255)" stroke-opacity="1" stroke-width="0" d=" M61.5,-9.253000259399414 C61.5,-9.253000259399414 61.5,9.253000259399414 61.5,9.253000259399414 C61.5,9.253000259399414 -61.5,9.253000259399414 -61.5,9.253000259399414 C-61.5,9.253000259399414 -61.5,-9.253000259399414 -61.5,-9.253000259399414 C-61.5,-9.253000259399414 61.5,-9.253000259399414 61.5,-9.253000259399414z"></path></g></g><g transform="matrix(0,1.002150058746338,-1,0,928.482666015625,-343.3560485839844)" opacity="1" style="display: block;"><g opacity="1" transform="matrix(0.5910000205039978,0,0,1,433,-53.24700164794922)"><path fill="rgb(0,0,0)" fill-opacity="1" d=" M61.5,-9.253000259399414 C61.5,-9.253000259399414 61.5,9.253000259399414 61.5,9.253000259399414 C61.5,9.253000259399414 -61.5,9.253000259399414 -61.5,9.253000259399414 C-61.5,9.253000259399414 -61.5,-9.253000259399414 -61.5,-9.253000259399414 C-61.5,-9.253000259399414 61.5,-9.253000259399414 61.5,-9.253000259399414z"></path><path stroke-linecap="butt" stroke-linejoin="miter" fill-opacity="0" stroke-miterlimit="4" stroke="rgb(255,255,255)" stroke-opacity="1" stroke-width="0" d=" M61.5,-9.253000259399414 C61.5,-9.253000259399414 61.5,9.253000259399414 61.5,9.253000259399414 C61.5,9.253000259399414 -61.5,9.253000259399414 -61.5,9.253000259399414 C-61.5,9.253000259399414 -61.5,-9.253000259399414 -61.5,-9.253000259399414 C-61.5,-9.253000259399414 61.5,-9.253000259399414 61.5,-9.253000259399414z"></path></g></g><g transform="matrix(1.002150058746338,0,0,1,522.3069458007812,116.85600280761719)" opacity="1" style="display: block;"><g opacity="1" transform="matrix(0.5638800263404846,0,0,1.0423099994659424,433,-53.24700164794922)"><path fill="rgb(0,0,0)" fill-opacity="1" d=" M61.5,-9.253000259399414 C61.5,-9.253000259399414 61.5,9.253000259399414 61.5,9.253000259399414 C61.5,9.253000259399414 -61.5,9.253000259399414 -61.5,9.253000259399414 C-61.5,9.253000259399414 -61.5,-9.253000259399414 -61.5,-9.253000259399414 C-61.5,-9.253000259399414 61.5,-9.253000259399414 61.5,-9.253000259399414z"></path><path stroke-linecap="butt" stroke-linejoin="miter" fill-opacity="0" stroke-miterlimit="4" stroke="rgb(255,255,255)" stroke-opacity="1" stroke-width="0" d=" M61.5,-9.253000259399414 C61.5,-9.253000259399414 61.5,9.253000259399414 61.5,9.253000259399414 C61.5,9.253000259399414 -61.5,9.253000259399414 -61.5,9.253000259399414 C-61.5,9.253000259399414 -61.5,-9.253000259399414 -61.5,-9.253000259399414 C-61.5,-9.253000259399414 61.5,-9.253000259399414 61.5,-9.253000259399414z"></path></g></g></g></g></g></svg>