<svg aria-hidden="true" width="32" height="32" fill="none" xmlns="http://www.w3.org/2000/svg"><path fill-rule="evenodd" clip-rule="evenodd" d="M12.524 7.618c.899-.041 1.186-.05 3.476-.05s2.577.01 3.476.05c.898.04 1.512.184 2.048.392a4.15 4.15 0 011.493.973c.43.421.76.93.972 1.493.209.536.351 1.15.393 2.046.041.901.05 1.188.05 3.478s-.01 2.577-.05 3.476c-.04.897-.184 1.51-.393 2.047a4.137 4.137 0 01-.972 1.494c-.421.43-.931.76-1.493.972-.537.208-1.15.351-2.047.392-.9.042-1.186.051-3.477.051-2.29 0-2.577-.01-3.476-.05-.897-.041-1.51-.185-2.047-.393a4.137 4.137 0 01-1.494-.972 4.133 4.133 0 01-.973-1.493c-.208-.537-.35-1.15-.392-2.047-.04-.9-.05-1.188-.05-3.477 0-2.29.01-2.578.05-3.476.041-.898.184-1.512.392-2.048a4.136 4.136 0 01.974-1.494c.42-.428.93-.76 1.492-.972.537-.208 1.15-.35 2.047-.392zm6.884 1.518c-.89-.04-1.156-.05-3.408-.05-2.251 0-2.518.01-3.407.05-.823.037-1.269.175-1.566.29a2.62 2.62 0 00-.97.63c-.28.273-.495.604-.63.97-.116.298-.253.744-.29 1.566-.041.89-.05 1.156-.05 3.408 0 2.251.009 2.518.05 3.407.037.823.174 1.269.29 1.566.135.366.35.698.63.97.272.28.604.495.97.63.297.116.743.253 1.566.29.889.041 1.155.05 3.407.05s2.518-.009 3.408-.05c.822-.037 1.268-.174 1.566-.29.393-.153.674-.335.97-.63.28-.272.495-.604.63-.97.115-.297.252-.743.29-1.566.04-.89.05-1.156.05-3.407 0-2.252-.01-2.518-.05-3.408-.038-.822-.175-1.268-.29-1.566a2.62 2.62 0 00-.63-.97 2.617 2.617 0 00-.97-.63c-.298-.115-.744-.253-1.566-.29zm-4.485 9.463a2.812 2.812 0 102.025-5.248 2.814 2.814 0 00-2.025 5.248zm-1.988-5.664a4.334 4.334 0 116.13 6.13 4.334 4.334 0 01-6.13-6.13zm8.36-.624a1.024 1.024 0 00-1.116-1.684 1.025 1.025 0 101.117 1.684z" fill="#000"></path></svg>