<svg viewBox="0 0 334 43" width="333" height="43" fill="none" xmlns="http://www.w3.org/2000/svg"><path d="M42.525 0H0v42.525h6.075V6.075h12.15v36.45H24.3V6.075h12.15v36.45h6.075V0zM91.093 6.075V0H48.568v42.525h42.525V36.45h-36.45V24.3h36.45v-6.075h-36.45V6.075h36.45zM103.212 36.45V0h-6.075v42.525h42.525V36.45h-36.45zM188.23 0l-36.45 15.471V0h-6.075v42.525h6.075v-15.39l36.45 15.39v-6.561L153.4 21.303l34.83-14.742V0zM230.723 0v36.45h-12.15V0h-6.075v36.45h-12.15V0h-6.075v42.525h42.525V0h-6.075zM285.367 6.075V0h-42.525v42.525h42.525V36.45h-36.45V24.3h36.45v-6.075h-36.45V6.075h36.45zM297.485 36.45V6.075h36.45V0H291.41v42.525h42.525v-24.3h-24.3V24.3h18.225v12.15h-30.375z" fill="currentcolor"></path></svg>