<svg aria-hidden="true" width="32" height="32" fill="none" xmlns="http://www.w3.org/2000/svg"><path d="M1.925 17.268L1.75 18.84l.175 1.575a.087.087 0 00.088.087.087.087 0 00.087-.087l.262-1.575-.262-1.575a.087.087 0 10-.175 0M2.97 16.306l-.262 2.535.262 2.537a.089.089 0 00.147.056.089.089 0 00.029-.056l.354-2.537-.354-2.538a.085.085 0 00-.087-.087l-.089.087M6.292 15.955l-.175 2.885.175 3.07a.177.177 0 00.354 0L7 18.845l-.262-2.888a.189.189 0 00-.176-.174c-.175 0-.262.087-.262.174M4.11 15.78l-.263 3.068.262 2.888a.187.187 0 00.176.174.304.304 0 00.087-.174l.262-2.896-.262-3.07a.187.187 0 00-.175-.174c0 .088-.088.088-.088.175M5.161 15.697L4.9 18.846l.262 2.976a.177.177 0 00.355 0l.254-2.976-.262-3.15a.189.189 0 00-.175-.175c-.088 0-.088.088-.175.175M7.44 14.12l-.263 4.721.263 3.069a.188.188 0 00.175.175c.174 0 .262-.088.262-.175l.263-3.069-.263-4.72a.188.188 0 00-.175-.175c-.175 0-.262.087-.262.175zM8.57 13.064l-.175 5.773.176 3.068a.236.236 0 00.262.262.279.279 0 00.262-.262l.263-3.068-.263-5.775a.262.262 0 00-.524 0M13.21 12.805l-.174 6.036.175 2.888a.354.354 0 00.7 0l.175-2.888-.173-6.123a.376.376 0 00-.354-.354c-.263.088-.354.176-.354.438M9.708 12.54l-.174 6.298.174 2.976a.263.263 0 00.526 0l.175-2.976-.175-6.3a.237.237 0 00-.262-.263.28.28 0 00-.264.263M11.986 12.544l-.175 6.297.175 2.976a.354.354 0 00.7 0l.175-2.976-.175-6.3a.354.354 0 10-.7 0M10.844 12.367l-.172 6.473.171 2.978a.264.264 0 00.526 0l.183-2.978-.175-6.476a.263.263 0 00-.525 0M14.35 11.578l-.175 7.26.175 2.889a.353.353 0 00.7 0l.175-2.888-.175-7.263a.354.354 0 00-.7 0M15.575 10.97l-.175 7.873.175 2.888a.354.354 0 00.7 0l.175-2.888-.175-7.873a.375.375 0 00-.354-.354h-.089c-.174 0-.262.174-.262.354M16.972 10.181c-.262.088-.354.175-.354.438v11.113c0 .175.175.354.354.437h9.713a3.5 3.5 0 100-7 3.199 3.199 0 00-1.312.262 6.112 6.112 0 00-6.125-5.6h-.438c-.613 0-1.225.176-1.838.354" fill="#000"></path></svg>