<svg aria-hidden="true" width="32" height="32" fill="none" xmlns="http://www.w3.org/2000/svg"><path fill-rule="evenodd" clip-rule="evenodd" d="M23.761 9.48c.85.23 1.52.9 1.748 1.749.425 1.552.41 4.787.41 4.787s0 3.22-.41 4.772a2.485 2.485 0 01-1.748 1.748c-1.552.409-7.761.409-7.761.409s-6.193 0-7.762-.425A2.485 2.485 0 016.49 20.77c-.408-1.536-.408-4.77-.408-4.77s0-3.22.408-4.772a2.535 2.535 0 011.748-1.765C9.791 9.056 16 9.056 16 9.056s6.209 0 7.761.424zm-4.57 6.522l-5.164-2.974v5.948l5.163-2.974z" fill="#000"></path></svg>